<svg id="Capa_2" xmlns="http://www.w3.org/2000/svg" viewBox="0 0 50 50"><path fill="#C32329" d="M41.88,34.2A20.38,20.38,0,0,1,42,37.42c0,1.58,0,3.34-1.1,4.51a3,3,0,0,1-1.52.9,6.17,6.17,0,0,1-1.55.13H12.26a5,5,0,0,1-2.12-.3,3.41,3.41,0,0,1-1.75-2.18,10.07,10.07,0,0,1-.33-2.85,10.39,10.39,0,0,1,.44-4.55,13.14,13.14,0,0,1,1.34-2.44,10.72,10.72,0,0,1,6.48-4.48,11.46,11.46,0,0,1,2.92-.24h1.55a4.32,4.32,0,0,0,4.09,2.92h.24A4.3,4.3,0,0,0,29,25.91h1.79a11.21,11.21,0,0,1,11,7.76A4.56,4.56,0,0,1,41.88,34.2Z"/><circle fill="#C32329" cx="25" cy="15.69" r="8.65"/></svg>